<svg width="25" height="25" viewBox="0 0 25 25" fill="none" xmlns="http://www.w3.org/2000/svg">
<path d="M21.0937 15C21.0937 15.2781 21.0113 15.55 20.8568 15.7813C20.7022 16.0125 20.4826 16.1928 20.2256 16.2992C19.9687 16.4056 19.6859 16.4335 19.4132 16.3792C19.1404 16.325 18.8898 16.191 18.6931 15.9944C18.4965 15.7977 18.3625 15.5471 18.3083 15.2743C18.254 15.0016 18.2819 14.7188 18.3883 14.4619C18.4947 14.2049 18.675 13.9853 18.9062 13.8307C19.1375 13.6762 19.4094 13.5938 19.6875 13.5938C20.0605 13.5938 20.4181 13.7419 20.6819 14.0056C20.9456 14.2694 21.0937 14.627 21.0937 15ZM20.5605 19.6043C20.3546 20.9318 19.6811 22.1421 18.6616 23.0168C17.642 23.8916 16.3434 24.3733 15 24.375H12.1875C10.6961 24.3734 9.26629 23.7803 8.21174 22.7258C7.15718 21.6712 6.56405 20.2414 6.5625 18.75V14.0027C4.75023 13.7744 3.08358 12.8926 1.87531 11.5227C0.667045 10.1528 0.000229224 8.3891 0 6.5625V1.875C0 1.37772 0.197544 0.900805 0.549175 0.549175C0.900805 0.197544 1.37772 0 1.875 0H3.75C3.99864 0 4.2371 0.098772 4.41291 0.274587C4.58873 0.450403 4.6875 0.68886 4.6875 0.9375C4.6875 1.18614 4.58873 1.4246 4.41291 1.60041C4.2371 1.77623 3.99864 1.875 3.75 1.875H1.875V6.5625C1.87493 7.30754 2.02288 8.04517 2.31024 8.73256C2.5976 9.41995 3.01865 10.0434 3.54895 10.5667C4.07925 11.0901 4.70823 11.5028 5.39937 11.781C6.0905 12.0593 6.83003 12.1974 7.575 12.1875C10.6348 12.1477 13.125 9.58008 13.125 6.46523V1.875H11.25C11.0014 1.875 10.7629 1.77623 10.5871 1.60041C10.4113 1.4246 10.3125 1.18614 10.3125 0.9375C10.3125 0.68886 10.4113 0.450403 10.5871 0.274587C10.7629 0.098772 11.0014 0 11.25 0H13.125C13.6223 0 14.0992 0.197544 14.4508 0.549175C14.8025 0.900805 15 1.37772 15 1.875V6.46523C15 10.3137 12.1254 13.5305 8.4375 14.0016V18.75C8.4375 19.7446 8.83259 20.6984 9.53585 21.4016C10.2391 22.1049 11.1929 22.5 12.1875 22.5H15C15.8516 22.4986 16.6774 22.2079 17.3422 21.6756C18.0069 21.1433 18.4711 20.401 18.6586 19.5703C17.5264 19.316 16.5287 18.6507 15.8587 17.7033C15.1887 16.7558 14.8939 15.5935 15.0315 14.4412C15.169 13.289 15.729 12.2287 16.6032 11.4655C17.4774 10.7024 18.6036 10.2906 19.7639 10.3099C20.9242 10.3292 22.036 10.7782 22.8844 11.57C23.7327 12.3618 24.2572 13.4402 24.3563 14.5964C24.4554 15.7526 24.1222 16.9044 23.421 17.8291C22.7198 18.7537 21.7006 19.3854 20.5605 19.602V19.6043ZM22.5 15C22.5 14.4437 22.335 13.9 22.026 13.4375C21.717 12.9749 21.2777 12.6145 20.7638 12.4016C20.2499 12.1887 19.6844 12.133 19.1388 12.2415C18.5932 12.3501 18.0921 12.6179 17.6988 13.0113C17.3054 13.4046 17.0376 13.9057 16.929 14.4513C16.8205 14.9969 16.8762 15.5624 17.0891 16.0763C17.302 16.5902 17.6624 17.0295 18.125 17.3385C18.5875 17.6476 19.1312 17.8125 19.6875 17.8125C20.4334 17.8125 21.1488 17.5162 21.6762 16.9887C22.2037 16.4613 22.5 15.7459 22.5 15Z" fill="#7E7E7E"/>
</svg>
