<svg width="29" height="23" viewBox="0 0 29 23" fill="none" xmlns="http://www.w3.org/2000/svg">
<path d="M26.9918 13.718C26.6429 13.4496 26.2369 13.2652 25.8052 13.1792C25.3735 13.0933 24.9278 13.108 24.5027 13.2223L19.5996 14.3496C19.7137 13.8677 19.7172 13.3663 19.6099 12.8828C19.5026 12.3994 19.2873 11.9465 18.9801 11.5581C18.6729 11.1697 18.2817 10.8559 17.836 10.6402C17.3902 10.4245 16.9015 10.3124 16.4062 10.3125H10.5398C10.0472 10.3113 9.55917 10.4077 9.10398 10.5961C8.6488 10.7846 8.23548 11.0614 7.88789 11.4105L5.23711 14.0625H1.875C1.37772 14.0625 0.900806 14.26 0.549175 14.6117C0.197544 14.9633 0 15.4402 0 15.9375L0 20.625C0 21.1223 0.197544 21.5992 0.549175 21.9508C0.900806 22.3025 1.37772 22.5 1.875 22.5H14.0625C14.1392 22.5 14.2155 22.4906 14.2898 22.4719L21.7898 20.5969C21.8376 20.5855 21.8843 20.5698 21.9293 20.55L26.4844 18.6117L26.5359 18.5883C26.9737 18.3695 27.3486 18.0429 27.6253 17.6393C27.9019 17.2356 28.0713 16.7681 28.1173 16.2809C28.1634 15.7937 28.0847 15.3028 27.8886 14.8544C27.6925 14.406 27.3855 14.0149 26.9965 13.718H26.9918ZM1.875 15.9375H4.6875V20.625H1.875V15.9375ZM25.7145 16.8996L21.2613 18.7957L13.9453 20.625H6.5625V15.3879L9.21445 12.7371C9.38793 12.5622 9.59444 12.4236 9.82197 12.3293C10.0495 12.2349 10.2935 12.1867 10.5398 12.1875H16.4062C16.7792 12.1875 17.1369 12.3357 17.4006 12.5994C17.6643 12.8631 17.8125 13.2208 17.8125 13.5938C17.8125 13.9667 17.6643 14.3244 17.4006 14.5881C17.1369 14.8518 16.7792 15 16.4062 15H13.125C12.8764 15 12.6379 15.0988 12.4621 15.2746C12.2863 15.4504 12.1875 15.6889 12.1875 15.9375C12.1875 16.1861 12.2863 16.4246 12.4621 16.6004C12.6379 16.7762 12.8764 16.875 13.125 16.875H16.875C16.9456 16.8748 17.0159 16.8669 17.0848 16.8516L24.9363 15.0457L24.9727 15.0363C25.2123 14.9698 25.4682 14.9942 25.6909 15.105C25.9136 15.2157 26.0876 15.4049 26.1792 15.6362C26.2708 15.8674 26.2737 16.1244 26.1872 16.3576C26.1008 16.5909 25.9311 16.7839 25.7109 16.8996H25.7145ZM19.2188 8.4375C19.4504 8.43776 19.6816 8.41895 19.9102 8.38125C20.1672 9.14478 20.6375 9.81874 21.2655 10.3235C21.8934 10.8282 22.6527 11.1425 23.4537 11.2294C24.2546 11.3162 25.0637 11.1719 25.7852 10.8135C26.5067 10.455 27.1106 9.89754 27.5253 9.20684C27.94 8.51614 28.1483 7.72114 28.1255 6.91582C28.1027 6.11051 27.8498 5.32856 27.3966 4.66242C26.9435 3.99628 26.3091 3.47382 25.5685 3.15679C24.8279 2.83977 24.0119 2.74144 23.2172 2.87344C22.9697 2.13779 22.524 1.48468 21.9292 0.98599C21.3345 0.487299 20.6137 0.162355 19.8461 0.0469197C19.0786 -0.0685157 18.2941 0.0300319 17.5789 0.331717C16.8638 0.633403 16.2457 1.12653 15.7928 1.75683C15.3398 2.38714 15.0696 3.13018 15.0117 3.90419C14.9538 4.6782 15.1106 5.45318 15.4648 6.14383C15.8189 6.83448 16.3568 7.41404 17.0191 7.81872C17.6814 8.2234 18.4426 8.43751 19.2188 8.4375ZM26.25 7.03125C26.25 7.4948 26.1125 7.94794 25.855 8.33337C25.5975 8.7188 25.2314 9.0192 24.8032 9.19659C24.3749 9.37399 23.9037 9.4204 23.449 9.32997C22.9944 9.23953 22.5767 9.01631 22.249 8.68853C21.9212 8.36075 21.698 7.94314 21.6075 7.48849C21.5171 7.03385 21.5635 6.5626 21.7409 6.13434C21.9183 5.70607 22.2187 5.34003 22.6041 5.08249C22.9896 4.82496 23.4427 4.6875 23.9062 4.6875C24.5279 4.6875 25.124 4.93443 25.5635 5.37397C26.0031 5.81351 26.25 6.40965 26.25 7.03125ZM19.2188 1.875C19.73 1.87526 20.2272 2.0427 20.6345 2.35181C21.0418 2.66092 21.3368 3.09473 21.4746 3.58711C20.9945 3.92496 20.5901 4.3593 20.2874 4.86236C19.9847 5.36542 19.7904 5.92612 19.7168 6.5086C19.5531 6.54394 19.3862 6.56201 19.2188 6.5625C18.5971 6.5625 18.001 6.31557 17.5615 5.87603C17.1219 5.43649 16.875 4.84035 16.875 4.21875C16.875 3.59715 17.1219 3.00101 17.5615 2.56147C18.001 2.12193 18.5971 1.875 19.2188 1.875Z" fill="#7E7E7E"/>
</svg>
